<?xml version="1.0" encoding="utf-8"?>
<!-- Generator: Adobe Illustrator 21.0.0, SVG Export Plug-In . SVG Version: 6.00 Build 0)  -->
<svg version="1.1" id="Layer_1" xmlns="http://www.w3.org/2000/svg" xmlns:xlink="http://www.w3.org/1999/xlink" x="0px" y="0px"
	 viewBox="0 0 229.6 17.4" style="enable-background:new 0 0 229.6 17.4;" xml:space="preserve">
<style type="text/css">
	.st0{fill-rule:evenodd;clip-rule:evenodd;fill:#ffffff;}
</style>
<g>
	<g>
		<polygon class="st0" points="226.3,7.8 218.9,7.8 218.3,9.3 225.8,9.3 225.8,9.3 226.1,9.3 226.6,7.8 226.3,7.8 		"/>
		<polygon class="st0" points="123.7,0.2 120.1,0.2 120.1,0.2 119.8,0.2 100,17 103.5,17 103.5,17 103.8,17 121,2.6 128.3,17 
			131.9,17 131.9,17 132.2,17 		"/>
		<polygon class="st0" points="28.8,0.2 28.5,0.2 23.9,13.9 10.4,0.2 10.1,0.2 10.1,0.2 5.7,0.2 0,16.9 3.3,16.9 3.3,16.9 3.6,16.9 
			8.5,2.4 22.9,16.9 23.1,16.9 23.1,16.9 26.4,16.9 32.1,0.2 31.8,0.2 		"/>
		<path class="st0" d="M58,0.2h-0.3l-3.6,10.7c-0.3,1-1,1.9-2,2.6c-1,0.7-2.1,1.3-3.5,1.6c-1.3,0.4-2.6,0.5-3.9,0.5
			c-0.6,0-1.2,0-1.8-0.1c-0.6-0.1-1.2-0.2-1.7-0.4c-1.1-0.3-1.9-0.9-2.5-1.5c-0.5-0.7-0.6-1.5-0.3-2.3l3.8-11.1h-0.3h-3h-0.3
			l-3.8,11.2c-0.3,0.9-0.3,1.7,0.1,2.5c0.4,0.7,1,1.3,1.9,1.9c0.9,0.5,2,0.9,3.2,1.1c1.3,0.3,2.6,0.4,4,0.4c0,0,0.1,0,0.1,0
			c0,0,0.1,0,0.1,0c1.9,0,3.8-0.2,5.7-0.7c1.9-0.5,3.5-1.2,4.9-2.1c1.4-1,2.3-2.1,2.8-3.5l3.6-10.7L58,0.2L58,0.2z"/>
		<polygon class="st0" points="96.9,0.2 96.9,0.2 96.7,0.2 80,14.4 73,0.2 72.7,0.2 72.7,0.2 67.6,0.2 61.9,17 65.2,17 65.2,17 
			65.5,17 70.4,2.4 77.6,17 77.8,17 77.8,17 80.7,17 97.7,2.4 92.8,17 93,17 96.1,17 96.3,17 102,0.2 		"/>
		<path class="st0" d="M160.7,2c-0.8-0.5-2-0.9-3.7-1.3c-1.7-0.3-3.9-0.5-6.5-0.5h-0.3h0l-8.8,0L135.7,17h0.3h3h0.3l5.2-15.2l6.4,0
			c1.5,0,2.9,0.2,4.3,0.5c1.3,0.3,2.3,0.7,3,1.3c0.7,0.6,0.9,1.3,0.6,2.1c-0.1,0.4-0.4,0.8-0.7,1.1c-0.3,0.3-0.7,0.6-1.2,0.9
			c-1,0.6-2.3,1-3.8,1.3c-1.6,0.3-3.3,0.4-5.3,0.4l-2.5,0l0,0h-0.3l8.6,7.6l0.3,0l0,0l4.2,0l-7.2-6.3c1.9,0,3.6-0.2,5.2-0.7
			c1.6-0.5,3-1.1,4.1-1.9c1.1-0.8,1.8-1.7,2.1-2.6c0.1-0.7,0.1-1.3-0.1-1.8C161.9,3,161.5,2.5,160.7,2z"/>
		<polygon class="st0" points="168.7,0.2 168.4,0.2 162.7,17 163,17 166,17 166.3,17 172,0.2 168.7,0.2 		"/>
		<polygon class="st0" points="201.6,0.2 201.4,0.2 196.7,13.9 183.2,0.2 182.9,0.2 182.9,0.2 178.5,0.2 172.8,17 173.1,17 
			173.1,17 176.4,17 181.3,2.5 195.7,17 199,17 199,17 199.2,17 204.9,0.3 201.6,0.2 		"/>
		<polygon class="st0" points="229.6,0.3 211.7,0.3 211.7,0.3 211.4,0.3 205.7,17 223.7,17 223.7,17 223.9,17 224.5,15.5 
			209.8,15.5 211.9,9.3 212.4,7.8 214.4,1.8 228.8,1.8 228.8,1.8 229.1,1.8 		"/>
	</g>
</g>
</svg>
